<?xml version="1.0" encoding="UTF-8" standalone="no"?>
<svg
   xmlns:dc="http://purl.org/dc/elements/1.1/"
   xmlns:cc="http://creativecommons.org/ns#"
   xmlns:rdf="http://www.w3.org/1999/02/22-rdf-syntax-ns#"
   xmlns:svg="http://www.w3.org/2000/svg"
   xmlns="http://www.w3.org/2000/svg"
   xmlns:sodipodi="http://sodipodi.sourceforge.net/DTD/sodipodi-0.dtd"
   xmlns:inkscape="http://www.inkscape.org/namespaces/inkscape"
   width="64"
   height="64"
   version="1.1"
   id="svg835"
   sodipodi:docname="ts-logo.svg"
   inkscape:version="1.0.1 (c497b03c, 2020-09-10)">
  <metadata
     id="metadata841">
    <rdf:RDF>
      <cc:Work
         rdf:about="">
        <dc:format>image/svg+xml</dc:format>
        <dc:type
           rdf:resource="http://purl.org/dc/dcmitype/StillImage" />
        <dc:title></dc:title>
      </cc:Work>
    </rdf:RDF>
  </metadata>
  <defs
     id="defs839" />
  <sodipodi:namedview
     pagecolor="#ffffff"
     bordercolor="#666666"
     borderopacity="1"
     objecttolerance="10"
     gridtolerance="10"
     guidetolerance="10"
     inkscape:pageopacity="0"
     inkscape:pageshadow="2"
     inkscape:window-width="2048"
     inkscape:window-height="1224"
     id="namedview837"
     showgrid="false"
     inkscape:zoom="7.329006"
     inkscape:cx="18.032443"
     inkscape:cy="43.102605"
     inkscape:window-x="0"
     inkscape:window-y="0"
     inkscape:window-maximized="0"
     inkscape:current-layer="svg835" />
  <path
     d="M 0,32.272888 V 64.272889 H 64.001999 V 0.27088808 H 0 Z m 51.576999,-2.549999 c 1.625001,0.405998 2.865001,1.128 4.003001,2.305998 0.589999,0.630002 1.463,1.778001 1.534,2.052003 0.02,0.08 -2.763,1.949998 -4.450001,2.997 -0.06,0.04001 -0.305,-0.223001 -0.58,-0.630002 -0.823,-1.199998 -1.686,-1.717 -3.006998,-1.808 -1.940001,-0.131997 -3.200002,0.884001 -3.18,2.58 0,0.498 0.07,0.791999 0.273999,1.200001 0.427,0.884 1.22,1.412 3.707999,2.489999 4.582,1.970001 6.542,3.27 7.760001,5.12 1.359999,2.061999 1.666,5.354001 0.741999,7.802001 -1.015999,2.661998 -3.534999,4.469999 -7.08,5.07 -1.097,0.192999 -3.698,0.163001 -4.875999,-0.05001 -2.57,-0.457 -5.008001,-1.727 -6.512002,-3.393 -0.589998,-0.649998 -1.736999,-2.347 -1.665998,-2.469998 0.03,-0.04 0.295,-0.203002 0.589999,-0.376001 l 2.377,-1.37 1.840001,-1.067001 0.386,0.569999 c 0.537999,0.823002 1.716999,1.950002 2.428,2.326002 2.041999,1.077 4.845999,0.924 6.227001,-0.315001 0.589999,-0.537999 0.832998,-1.096999 0.832998,-1.92 0,-0.741998 -0.09001,-1.066998 -0.477,-1.624999 -0.497999,-0.71 -1.513999,-1.31 -4.399999,-2.559999 -3.302,-1.422 -4.724,-2.306001 -6.024001,-3.708 -0.751999,-0.813 -1.463,-2.113001 -1.757998,-3.200001 C 40.025,38.839882 39.964,36.573882 40.156992,35.659882 c 0.680001,-3.200001 3.088002,-5.415003 6.563003,-6.075001 1.127998,-0.213 3.749998,-0.131999 4.855999,0.142 z m -15.025,2.67 0.02,2.619999 H 28.242 v 23.67 h -5.892001 v -23.67 H 14.02 v -2.569999 l 0.07001,-2.640001 c 0.03,-0.04 5.099999,-0.06001 11.245999,-0.05001 l 11.184999,0.03001 z"
     fill="#007acc"
     id="path833"
     style="fill:#000000;stroke-width:0.999999" />
</svg>
